<svg width="29" height="29" viewBox="0 0 29 29" fill="none" xmlns="http://www.w3.org/2000/svg">
<g clip-path="url(#clip0_286_1008)">
<path d="M11.3422 16.4964V28.5518H16.6971V16.4964H20.7066L21.4601 11.5181H16.6971V8.289C16.6971 7.60729 16.899 6.98838 17.3026 6.43225C17.7062 5.87612 18.4373 5.59806 19.4957 5.59806H21.6754V1.34638C21.6754 1.34638 21.2673 1.28807 20.451 1.17147C19.6347 1.05486 18.7602 0.996555 17.8273 0.996555C16.8407 0.996555 15.9526 1.14904 15.1633 1.45401C14.374 1.74105 13.6967 2.16711 13.1316 2.73221C12.5666 3.29731 12.1225 4.00144 11.7996 4.8446C11.4947 5.68776 11.3422 6.64752 11.3422 7.7239V11.5181H7.00977V16.4964H11.3422Z" fill="black"/>
</g>
<defs>
<clipPath id="clip0_286_1008">
<rect width="27.5552" height="27.5552" fill="white" transform="matrix(1 0 0 -1 0.875 28.2773)"/>
</clipPath>
</defs>
</svg>
