<svg width="29" height="28" viewBox="0 0 29 28" fill="none" xmlns="http://www.w3.org/2000/svg">
<path d="M14.3176 -0.00344467C12.4519 -0.00344467 11.2231 0.00103951 10.6311 0.0100098C10.039 0.01898 9.37528 0.050375 8.63976 0.104193C7.90424 0.122133 7.27187 0.189405 6.74265 0.306013C6.21343 0.422621 5.73355 0.561653 5.303 0.723108C4.3522 1.0819 3.53146 1.60663 2.84079 2.29731C2.15012 2.98798 1.62538 3.79078 1.26659 4.7057V4.75952C1.06926 5.26182 0.91677 5.79104 0.809133 6.34717C0.701495 6.9033 0.638707 7.48633 0.620767 8.09628C0.584888 8.8318 0.562464 9.49557 0.553494 10.0876C0.544524 10.6796 0.540039 11.9084 0.540039 13.7742C0.540039 15.6399 0.544524 16.8732 0.553494 17.4742C0.562464 18.0752 0.584888 18.7434 0.620767 19.4789C0.656646 20.1965 0.728405 20.8199 0.836042 21.3491C0.94368 21.8784 1.0872 22.3672 1.26659 22.8157C1.60744 23.7486 2.12769 24.5648 2.82734 25.2645C3.52698 25.9641 4.33426 26.4844 5.24918 26.8252H5.303C5.73355 27.0046 6.21343 27.1481 6.74265 27.2558C7.27187 27.3634 7.90424 27.4352 8.63976 27.471C9.37528 27.5069 10.039 27.5293 10.6311 27.5383C11.2231 27.5473 12.4519 27.5518 14.3176 27.5518C16.1834 27.5518 17.4122 27.5518 18.0042 27.5518C18.5962 27.5518 19.26 27.5248 19.9955 27.471C20.6055 27.4531 21.193 27.3903 21.7581 27.2827C22.3232 27.175 22.8748 27.0225 23.413 26.8252H23.3323C24.2831 26.4844 25.1038 25.9641 25.7945 25.2645C26.4852 24.5648 27.0099 23.7575 27.3687 22.8426V22.8157C27.5481 22.3852 27.6916 21.9008 27.7992 21.3626C27.9069 20.8244 27.9786 20.1965 28.0145 19.4789C28.0504 18.7434 28.0728 18.0752 28.0818 17.4742C28.0908 16.8732 28.0952 15.6399 28.0952 13.7742C28.0952 11.9084 28.0908 10.6796 28.0818 10.0876C28.0728 9.49557 28.0504 8.8318 28.0145 8.09628C27.9966 7.50427 27.9338 6.92124 27.8261 6.34717C27.7185 5.7731 27.5571 5.21697 27.3418 4.67879L27.3687 4.75952C27.0278 3.82666 26.5076 3.01041 25.8079 2.31076C25.1083 1.61112 24.301 1.09087 23.3861 0.750017L23.3323 0.723108C22.8479 0.543713 22.3232 0.395712 21.7581 0.279104C21.193 0.162497 20.6144 0.104193 20.0224 0.104193H19.9955C19.26 0.050375 18.5962 0.01898 18.0042 0.0100098C17.4122 0.00103951 16.1834 -0.00344467 14.3176 -0.00344467ZM14.3176 2.47222C16.1654 2.47222 17.3719 2.48119 17.937 2.49913C18.502 2.51707 19.1524 2.54398 19.8879 2.57985C20.5516 2.5978 21.0809 2.6561 21.4755 2.75477C21.8702 2.85343 22.1931 2.94762 22.4443 3.03732C22.7672 3.16289 23.0542 3.30641 23.3054 3.46786C23.5565 3.62932 23.7987 3.82666 24.0319 4.05987C24.2651 4.31103 24.4625 4.5577 24.6239 4.79988C24.7854 5.04206 24.9289 5.32461 25.0545 5.64752C25.1442 5.89868 25.2384 6.22159 25.337 6.61626C25.4357 7.01093 25.503 7.54912 25.5389 8.23083C25.5747 8.94841 25.5972 9.59423 25.6061 10.1683C25.6151 10.7424 25.6196 11.9443 25.6196 13.7742C25.6196 15.6219 25.6151 16.8329 25.6061 17.4069C25.5972 17.981 25.5747 18.6268 25.5389 19.3444C25.503 20.0082 25.4402 20.5374 25.3505 20.9321C25.2608 21.3267 25.1621 21.6496 25.0545 21.9008C24.9289 22.2237 24.7854 22.5107 24.6239 22.7619C24.4625 23.013 24.2651 23.2552 24.0319 23.4884C23.7987 23.7396 23.5565 23.9414 23.3054 24.0939C23.0542 24.2464 22.7672 24.3944 22.4443 24.5379C22.2111 24.6097 21.8971 24.6994 21.5024 24.807C21.1078 24.9146 20.5696 24.9774 19.8879 24.9954C19.1524 25.0312 18.4976 25.0537 17.9235 25.0626C17.3494 25.0716 16.1475 25.0761 14.3176 25.0761C12.4699 25.0761 11.2634 25.0716 10.6983 25.0626C10.1332 25.0537 9.48292 25.0312 8.7474 24.9954C8.29891 24.9954 7.8549 24.955 7.41538 24.8743C6.97587 24.7935 6.5498 24.6725 6.13719 24.511L6.19101 24.5379C5.88604 24.4123 5.599 24.2643 5.32991 24.0939C5.06081 23.9235 4.81863 23.7217 4.60335 23.4884C4.38808 23.2732 4.19074 23.0355 4.01135 22.7753C3.83195 22.5152 3.68844 22.2416 3.5808 21.9546V21.9008C3.4911 21.6676 3.39692 21.3536 3.29825 20.959C3.19958 20.5643 3.13231 20.0261 3.09643 19.3444C3.06055 18.6268 3.03813 17.981 3.02916 17.4069C3.02019 16.8329 3.0157 15.6219 3.0157 13.7742C3.0157 11.9443 3.02019 10.7424 3.02916 10.1683C3.03813 9.59423 3.06055 8.94841 3.09643 8.23083C3.13231 7.54912 3.1951 7.01093 3.2848 6.61626C3.37449 6.22159 3.47316 5.89868 3.5808 5.64752C3.70638 5.32461 3.84989 5.04206 4.01135 4.79988C4.17281 4.5577 4.37014 4.31103 4.60335 4.05987C4.83657 3.82666 5.07875 3.62932 5.32991 3.46786C5.58106 3.30641 5.8681 3.16289 6.19101 3.03732C6.42422 2.94762 6.73817 2.85343 7.13284 2.75477C7.52751 2.6561 8.06569 2.5978 8.7474 2.57985C9.48292 2.54398 10.1377 2.51707 10.7118 2.49913C11.2859 2.48119 12.4878 2.47222 14.3176 2.47222ZM14.3176 18.3757C13.0439 18.3757 11.9586 17.9272 11.0616 17.0302C10.1646 16.1332 9.71614 15.0479 9.71614 13.7742C9.71614 12.5184 10.1646 11.4375 11.0616 10.5316C11.9586 9.62563 13.0439 9.17265 14.3176 9.17265C15.5914 9.17265 16.6767 9.62563 17.5737 10.5316C18.4707 11.4375 18.9191 12.5184 18.9191 13.7742C18.9191 15.0479 18.4707 16.1332 17.5737 17.0302C16.6767 17.9272 15.5914 18.3757 14.3176 18.3757ZM14.3176 6.69699C13.3489 6.69699 12.434 6.88536 11.5729 7.26209C10.7118 7.63882 9.95832 8.14561 9.3125 8.78247C8.66667 9.41932 8.16436 10.1683 7.80557 11.0294C7.42884 11.8905 7.24047 12.8054 7.24047 13.7742C7.24047 14.7608 7.42884 15.6847 7.80557 16.5458C8.16436 17.4069 8.66667 18.1559 9.3125 18.7928C9.95832 19.4296 10.7118 19.9364 11.5729 20.3131C12.434 20.6719 13.3489 20.8513 14.3176 20.8513C15.2864 20.8513 16.2013 20.6719 17.0624 20.3131C17.9235 19.9364 18.677 19.4296 19.3228 18.7928C19.9686 18.1559 20.4709 17.4069 20.8297 16.5458C21.2064 15.6847 21.3948 14.7608 21.3948 13.7742C21.3948 12.8054 21.2064 11.8905 20.8297 11.0294C20.4709 10.1683 19.9686 9.41932 19.3228 8.78247C18.677 8.14561 17.9235 7.63882 17.0624 7.26209C16.2013 6.88536 15.2864 6.69699 14.3176 6.69699ZM23.3323 6.4279C23.3323 6.89433 23.1708 7.28451 22.8479 7.59845C22.525 7.9124 22.1303 8.06937 21.6639 8.06937C21.2154 8.06937 20.8297 7.9124 20.5068 7.59845C20.1839 7.28451 20.0224 6.89433 20.0224 6.4279C20.0224 5.97941 20.1839 5.59371 20.5068 5.27079C20.8297 4.94788 21.2154 4.78642 21.6639 4.78642C22.1303 4.78642 22.525 4.94788 22.8479 5.27079C23.1708 5.59371 23.3323 5.97941 23.3323 6.4279Z" fill="black"/>
</svg>
