<svg width="28" height="29" viewBox="0 0 28 29" fill="none" xmlns="http://www.w3.org/2000/svg">
<g clip-path="url(#clip0_286_1012)">
<path d="M5.90987 5.03296C5.90987 5.8223 5.63629 6.49504 5.08913 7.05116C4.54197 7.60729 3.87372 7.88536 3.08438 7.88536C2.29504 7.88536 1.62231 7.60729 1.06618 7.05116C0.510051 6.49504 0.231988 5.8223 0.231988 5.03296C0.231988 4.24362 0.510051 3.5664 1.06618 3.0013C1.62231 2.43621 2.29504 2.15366 3.08438 2.15366C3.87372 2.15366 4.54197 2.43621 5.08913 3.0013C5.63629 3.5664 5.90987 4.24362 5.90987 5.03296ZM5.93678 10.1996H0.205078V28.5518H5.93678V10.1996ZM15.1129 10.1996H9.40808V28.5518H15.1129V18.9182C15.1129 17.5727 15.4717 16.5502 16.1892 15.8505C16.9068 15.1329 17.7007 14.7607 18.5707 14.7338C19.4408 14.7069 20.2346 15.0343 20.9522 15.716C21.6698 16.3977 22.0286 17.4651 22.0286 18.9182V28.5518H27.7603V16.9269C27.7603 14.6665 27.2131 12.9623 26.1188 11.8141C25.0245 10.666 23.7642 9.97083 22.338 9.72865C20.9118 9.48646 19.4991 9.63447 18.0998 10.1727C16.7005 10.7288 15.7049 11.563 15.1129 12.6752V10.1996Z" fill="black"/>
</g>
<defs>
<clipPath id="clip0_286_1012">
<rect width="27.5552" height="27.5552" fill="white" transform="matrix(1 0 0 -1 0.205078 28.2773)"/>
</clipPath>
</defs>
</svg>
