<svg width="74" height="74" viewBox="0 0 74 74" fill="none" xmlns="http://www.w3.org/2000/svg">
<rect width="74" height="74" rx="11.84" fill="#F4F3F0"/>
<path d="M19.4278 23.1525C19.4278 22.693 19.8008 22.32 20.2603 22.32C20.7199 22.32 21.0928 22.693 21.0928 23.1525C21.0928 23.612 20.7199 23.985 20.2603 23.985C19.8008 23.985 19.4278 23.612 19.4278 23.1525ZM53.5603 23.985C54.0199 23.985 54.3928 23.612 54.3928 23.1525C54.3928 22.693 54.0199 22.32 53.5603 22.32C53.1008 22.32 52.7278 22.693 52.7278 23.1525C52.7278 23.612 53.1008 23.985 53.5603 23.985ZM20.2603 42.3C19.8008 42.3 19.4278 42.673 19.4278 43.1325C19.4278 43.592 19.8008 43.965 20.2603 43.965C20.7199 43.965 21.0928 43.592 21.0928 43.1325C21.0928 42.673 20.7199 42.3 20.2603 42.3ZM52.7278 43.1325C52.7278 43.592 53.1008 43.965 53.5603 43.965C54.0199 43.965 54.3928 43.592 54.3928 43.1325C54.3928 42.673 54.0199 42.3 53.5603 42.3C53.1008 42.3 52.7278 42.673 52.7278 43.1325ZM36.9103 36.4725C36.4508 36.4725 36.0778 36.8455 36.0778 37.305C36.0778 37.7645 36.4508 38.1375 36.9103 38.1375C37.3699 38.1375 37.7428 37.7645 37.7428 37.305C37.7428 36.8455 37.3699 36.4725 36.9103 36.4725ZM36.9103 10.665C37.3699 10.665 37.7428 10.292 37.7428 9.8325C37.7428 9.37296 37.3699 9 36.9103 9C36.4508 9 36.0778 9.37296 36.0778 9.8325C36.0778 10.292 36.4508 10.665 36.9103 10.665ZM23.5903 57.0519H50.2303V55.8531H23.5903V57.0519ZM60.7748 36.7023C60.6815 36.9254 60.4634 37.0719 60.2203 37.0719H57.4897V49.1914H60.2203V50.3919H50.8297V52.5214H56.8903V53.7219H16.9303V52.5231H22.9909V50.3919H13.6003V49.1931H16.3309V37.0719H13.6003C13.3572 37.0719 13.1391 36.9254 13.0459 36.7006C12.9526 36.4758 13.0043 36.2194 13.1758 36.0463L16.3309 32.8928V29.8125C16.3309 27.6463 18.0942 25.8831 20.2603 25.8831C22.4265 25.8831 24.1897 27.6463 24.1897 29.8125V32.5431H26.9203C27.1634 32.5431 27.3815 32.688 27.4748 32.9127C27.568 33.1358 27.5164 33.3939 27.3449 33.5654L25.0372 35.8731H29.6509V30.0606L26.4958 26.9054C26.3243 26.7339 26.2726 26.4758 26.3659 26.2527C26.4591 26.0296 26.6772 25.8831 26.9203 25.8831H29.6509V23.1525C29.6509 19.944 31.7555 17.2484 34.6459 16.291V14.8275C34.6459 13.5788 35.6616 12.5631 36.9103 12.5631C38.1591 12.5631 39.1747 13.5788 39.1747 14.8275V16.291C42.0652 17.2484 44.1697 19.9457 44.1697 23.1525V25.8831H46.9003C47.1434 25.8831 47.3615 26.028 47.4548 26.2527C47.548 26.4758 47.4947 26.7339 47.3249 26.9054L44.1697 30.0606V35.8731H48.7834L46.4758 33.5671C46.3043 33.3956 46.2526 33.1375 46.3459 32.9144C46.4391 32.6896 46.6589 32.5448 46.9003 32.5448H49.6309V29.8125C49.6309 27.6463 51.3942 25.8831 53.5603 25.8831C55.7265 25.8831 57.4897 27.6463 57.4897 29.8125V32.8944L60.6449 36.0479C60.8147 36.2211 60.868 36.4775 60.7748 36.7023ZM50.8297 32.5431H56.2893V29.8125C56.2893 28.3073 55.0655 27.0819 53.5587 27.0819C52.0518 27.0819 50.8281 28.3073 50.8281 29.8125L50.8297 32.5431ZM24.1897 40.4019V49.1914H26.3209V40.4019H24.1897ZM27.5197 49.1931H29.6509V40.4019H27.5197V49.1931ZM30.8497 40.4019V49.1914H32.9809V40.4019H30.8497ZM34.1797 39.2031H39.6409V36.7223L36.9103 33.99L34.1797 36.7206V39.2031ZM34.1797 40.4019V49.1914H39.6409V40.4019H34.1797ZM40.8397 49.1931H42.9693V40.4019H40.8397V49.1931ZM27.5197 50.3919V52.5214H29.6509V50.3919H27.5197ZM30.8497 52.5231H32.9809V50.3919H30.8497V52.5231ZM34.1797 52.5231H39.6409V50.3919H34.1797V52.5231ZM40.8397 52.5231H42.9693V50.3919H40.8397V52.5231ZM44.1697 52.5231H46.2993V50.3919H44.1697V52.5231ZM46.3009 49.1931V40.4019H44.1697V49.1914L46.3009 49.1931ZM47.4997 49.1931H49.6293V40.4019H47.4997V49.1931ZM52.1134 39.2031L49.9822 37.0736H40.8414V39.2031H52.1134ZM35.8447 16.0013C36.1944 15.9497 36.5457 15.8931 36.9103 15.8931C37.275 15.8931 37.6263 15.948 37.9759 16.0013V14.8275C37.9759 14.2398 37.4981 13.7619 36.9103 13.7619C36.3226 13.7619 35.8447 14.2398 35.8447 14.8275V16.0013ZM30.8497 23.1525V25.8831H34.6459V21.4875C34.6459 20.2388 35.6616 19.2231 36.9103 19.2231C38.1591 19.2231 39.1747 20.2388 39.1747 21.4875V25.8831H42.9693V23.1525C42.9693 19.8108 40.2503 17.0919 36.9087 17.0919C33.5687 17.0919 30.8497 19.8108 30.8497 23.1525ZM37.9759 25.8831V21.4875C37.9759 20.8998 37.4981 20.4219 36.9103 20.4219C36.3226 20.4219 35.8447 20.8998 35.8447 21.4875V25.8831H37.9759ZM28.3672 27.0819L30.4984 29.2131H43.3222L45.4534 27.0819H43.5703H30.2503H28.3672ZM30.8497 35.8731H33.3322L36.4874 32.7196C36.7222 32.4848 37.1001 32.4848 37.3349 32.7196L40.4901 35.8731H42.9709V30.4119H30.8497V35.8731ZM23.8384 37.0719L21.7072 39.2014H32.9809V37.0719H23.8384ZM17.5297 29.8125V32.5431H22.9909V29.8125C22.9909 28.3073 21.7655 27.0819 20.2603 27.0819C18.7552 27.0819 17.5297 28.3073 17.5297 29.8125ZM15.0472 35.8731H23.3422L25.4734 33.7419H17.1784L15.0472 35.8731ZM22.9909 49.1931V40.4019H20.2603C20.0172 40.4019 19.7991 40.2554 19.7059 40.0306C19.6126 39.8058 19.6643 39.5494 19.8358 39.3763L22.1418 37.0702H17.5297V49.1898H22.9909V49.1931ZM24.1897 52.5231H26.3209V50.3919H24.1897V52.5231ZM49.6309 50.3919H47.4997V52.5214H49.6293L49.6309 50.3919ZM56.2909 37.0719H51.6772L53.9849 39.3779C54.1564 39.5511 54.208 39.8075 54.1148 40.0323C54.0215 40.257 53.8034 40.4019 53.5603 40.4019H50.8297V49.1914H56.2893L56.2909 37.0719ZM58.7734 35.8731L56.6422 33.7419H48.3489L50.4801 35.8731H58.7734Z" fill="black"/>
</svg>
