<svg width="124" height="89" viewBox="0 0 124 89" fill="none" xmlns="http://www.w3.org/2000/svg">
<g clip-path="url(#clip0_527_315)">
<path d="M102.175 0.351604C102.075 0.439505 102 0.900987 102 1.36247V2.19753H100.875C100.075 2.19753 99.75 2.28543 99.75 2.50518C99.75 2.87876 100.3 3.07654 101.25 3.07654C101.925 3.07654 101.975 3.12049 101.925 3.95555C101.9 4.41704 101.975 4.87852 102.05 4.96642C102.4 5.27407 102.75 4.76864 102.75 3.93358V3.07654H103.825C105.025 3.07654 105.275 2.96667 105.075 2.50518C105 2.30741 104.55 2.19753 103.875 2.19753H102.775L102.825 1.29654C102.875 0.439505 102.575 0.0219741 102.175 0.351604Z" fill="white"/>
<path d="M53.5746 3.18643C52.7496 3.49409 52.5496 3.82372 52.9746 4.04347C53.0996 4.1094 53.6746 4.02149 54.2746 3.84569C55.6246 3.40619 56.4746 3.58199 57.3996 4.41705C58.4996 5.44989 59.3996 5.77952 60.5996 5.62569C61.8496 5.44989 64.2496 4.2852 64.2496 3.84569C64.2496 3.38421 63.9996 3.42816 62.3746 4.17532C60.3496 5.12026 59.5496 5.05433 57.9996 3.84569C56.8746 2.96668 56.5996 2.8568 55.5496 2.8568C54.8996 2.87878 53.9996 3.01063 53.5746 3.18643Z" fill="white"/>
<path d="M82.0996 5.0324C79.7496 6.28499 80.7746 9.66919 83.5246 9.66919C85.7996 9.66919 87.2246 8.02104 86.4246 6.30697C85.6746 4.72474 83.7246 4.15339 82.0996 5.0324ZM85.2246 6.06524C85.9496 6.87832 85.8746 7.60351 84.9996 8.39462C84.3496 8.944 84.0996 9.03191 83.4246 8.92203C80.9996 8.5045 81.2996 5.49388 83.7746 5.49388C84.4996 5.49388 84.8246 5.62573 85.2246 6.06524Z" fill="white"/>
<path d="M31.3502 14.262C29.6502 15.1849 29.3502 17.1847 30.7502 18.4153C32.1252 19.624 34.3502 19.4482 35.4252 18.0417C36.1252 17.1188 36.1502 16.1519 35.5002 15.2289C34.6002 13.9104 32.8002 13.4928 31.3502 14.262ZM34.3752 15.2728C35.6752 16.3936 34.7502 18.4593 32.9502 18.4593C31.9502 18.4593 30.7502 17.4045 30.7502 16.5254C30.7502 14.9432 33.1002 14.1301 34.3752 15.2728Z" fill="white"/>
<path d="M83.8754 16.1958C78.5754 16.5035 71.3004 17.6242 66.8254 18.8109C56.2004 21.6457 47.4754 28.1724 38.3004 40.1709C35.9504 43.2474 35.4504 44.0166 35.7504 44.1704C35.9504 44.3022 36.2504 44.3901 36.4254 44.3901C36.6004 44.3901 37.8004 42.9837 39.1004 41.2477C42.7004 36.523 45.7754 33.1608 49.5004 29.8645C57.0004 23.2499 64.0004 19.9536 72.2504 19.1185C77.7754 18.5691 83.6754 19.9975 86.9004 22.6785C89.2754 24.6563 89.2754 24.5464 86.9254 27.4911C84.1254 30.9632 83.9754 31.139 83.8254 30.8314C83.4754 30.0183 81.0004 27.5351 79.7504 26.722C77.4254 25.2057 75.3254 24.5684 72.4004 24.4366C69.4004 24.3267 67.7504 24.5904 65.3254 25.6452C62.2754 26.9417 59.7754 29.425 58.5254 32.4136C57.4504 34.8968 57.5754 38.6546 58.8004 41.1598C59.5754 42.764 59.9504 42.1267 59.2504 40.3906C58.4504 38.4788 58.2754 35.2704 58.8754 33.4904C60.5504 28.3482 65.4754 25.0079 71.3754 24.9859C77.3254 24.942 82.0004 27.9306 84.0004 33.0509C84.5504 34.5232 85.1004 34.6771 84.8754 33.3366C84.7004 32.3477 84.7254 32.2817 86.5504 30.0622C87.5754 28.8096 88.7254 27.4032 89.0754 26.9417L89.7254 26.0627L90.1004 26.8319C91.0254 28.7877 91.3254 30.4358 91.3254 33.6222C91.3004 36.3472 91.2004 37.1383 90.6504 38.9842C90.3004 40.1929 90.0504 41.2257 90.1254 41.2696C90.3754 41.4894 91.4504 41.0719 91.5754 40.7203C91.6254 40.5005 92.0254 39.2919 92.4504 38.0173C94.1254 32.963 95.1754 27.2054 95.4254 21.4919C95.6004 17.6462 95.5004 17.3166 93.9254 16.4815C93.2004 16.0859 92.7004 16.042 89.1254 16.0859C86.9254 16.1079 84.5754 16.1519 83.8754 16.1958ZM93.9754 22.3709C93.8004 24.964 93.1004 30.5237 92.9004 31.0951C92.8504 31.205 92.7504 30.9193 92.6504 30.4358C92.5504 29.9524 92.0754 28.458 91.6004 27.0956L90.7004 24.6343L91.7004 23.14C92.2504 22.3269 93.0004 21.1183 93.3504 20.481C93.7254 19.8217 94.0754 19.3383 94.1004 19.3822C94.1504 19.4042 94.0754 20.7667 93.9754 22.3709Z" fill="white"/>
<path d="M47.1253 18.0637C45.8003 18.679 45.5753 20.1074 46.6503 20.8546C48.3253 22.0193 50.3753 20.5909 49.6003 18.7889C49.4503 18.4593 48.2503 17.8 47.8253 17.8C47.7253 17.8 47.4003 17.9319 47.1253 18.0637ZM48.6003 19.0306C49.0753 19.4482 49.1003 19.58 48.6753 20.0855C48.1503 20.7227 47.1503 20.459 47.0503 19.6899C46.9253 18.745 47.8503 18.3494 48.6003 19.0306Z" fill="white"/>
<path d="M111.275 21.8875C110.975 22.2171 110.75 22.6346 110.75 22.8544C110.75 23.6015 111.725 24.3926 112.625 24.3926C113.525 24.3926 114.5 23.6015 114.5 22.8544C114.5 22.1072 113.525 21.3161 112.625 21.3161C112.025 21.3161 111.65 21.4699 111.275 21.8875ZM113.325 22.4368C113.7 22.9642 113.35 23.5136 112.65 23.5136C111.925 23.5136 111.55 22.7884 112.025 22.283C112.4 21.8875 112.975 21.9534 113.325 22.4368Z" fill="white"/>
<path d="M69.6245 25.9528C69.3745 26.2825 69.6495 26.4583 70.1245 26.2825C70.3495 26.2165 70.4495 26.0627 70.3745 25.9309C70.1745 25.6452 69.8245 25.6452 69.6245 25.9528Z" fill="white"/>
<path d="M71.8252 25.865C71.1252 26.0847 71.5752 26.3265 72.9502 26.4583C73.7252 26.5462 75.0502 26.8539 75.8752 27.1615C77.7252 27.8647 78.5002 28.0186 78.5002 27.7329C78.5002 27.0736 72.9002 25.5134 71.8252 25.865Z" fill="white"/>
<path d="M68.0496 28.8096C66.2996 29.403 63.9746 31.3148 63.0996 32.8751C62.6246 33.7321 62.3996 34.5232 62.3246 35.6659L62.2246 37.2482L62.7746 36.5889C63.8496 35.3363 65.1496 34.3035 65.8496 34.1497C66.2246 34.0617 66.9746 34.1277 67.4996 34.2815C68.2496 34.5013 68.6246 34.5013 69.3996 34.2595C69.9746 34.0837 71.4246 33.9738 72.8746 33.9738C74.9496 33.9958 75.6746 34.0837 77.0996 34.5672C78.6746 35.0726 78.8996 35.0946 79.5246 34.8089C80.5746 34.3474 80.5996 34.1497 79.8996 32.8751C79.0246 31.2929 77.2746 29.7985 75.3746 29.0074C73.9746 28.4141 73.5496 28.3482 71.5996 28.3701C69.9996 28.3701 68.9996 28.502 68.0496 28.8096Z" fill="white"/>
<path d="M27.6751 32.2378C27.5751 32.3037 27.5001 32.6993 27.5001 33.0729C27.5001 33.7321 27.4251 33.7981 26.4751 33.9079C25.9251 33.9739 25.4001 34.0837 25.3251 34.1277C25.0251 34.4134 25.6001 34.721 26.3751 34.721C27.2001 34.721 27.2251 34.743 27.3001 35.644C27.4001 36.9405 28.1001 36.9625 28.2001 35.666C28.2751 34.743 28.2751 34.743 29.3251 34.6771C30.6251 34.5892 30.6001 34.2156 29.3251 34.0618C28.4001 33.9519 28.3751 33.9079 28.3001 33.0069C28.2251 32.1279 28.0501 31.9082 27.6751 32.2378Z" fill="white"/>
<path d="M103.5 33.7761C103.5 34.8089 104.2 36.1494 105.2 37.1823C105.8 37.7536 105.9 38.0173 105.7 38.1931C105.475 38.3909 105.55 38.4568 106.05 38.4568C106.4 38.4568 107.175 38.6106 107.75 38.7864C109.275 39.2479 110.15 39.204 110.6 38.6326C111.775 37.1823 109.9 36.1714 107.6 37.0284C106.75 37.3361 106.675 37.3141 106.125 36.8306C105.375 36.1714 104.625 34.8309 104.4 33.7761C104.3 33.2706 104.075 32.963 103.875 32.963C103.6 32.963 103.5 33.2047 103.5 33.7761ZM110 37.9074C110 38.259 108.925 38.3689 108.15 38.1052C107.475 37.8855 107.975 37.5778 109.025 37.5778C109.725 37.5778 110 37.6657 110 37.9074Z" fill="white"/>
<path d="M11.925 36.3032C10.85 37.2262 9.97498 38.5667 9.09998 40.6104C8.54998 41.9509 8.37498 42.1487 8.07498 41.9289C7.34998 41.4235 6.94998 40.3906 7.07498 39.4237C7.14998 38.6766 7.09998 38.5227 6.82498 38.6106C6.37498 38.7645 5.74998 39.8412 5.74998 40.4566C5.74998 40.8961 6.92498 42.0608 7.82498 42.5222C8.22498 42.72 8.17498 42.9617 7.17498 45.5988C5.52498 49.84 5.24998 50.3674 4.77498 50.2136C3.89998 49.9279 1.32498 49.84 0.799981 50.0817C-0.0500196 50.4773 0.0749804 51.4662 1.04998 52.1914C1.72498 52.6968 2.02498 52.7627 2.89998 52.6748C3.49998 52.6309 4.29998 52.3452 4.77498 52.0156L5.57498 51.4662L7.44998 52.2353C10.15 53.3121 11.9 53.6857 12.925 53.378C13.675 53.1583 14.5 52.4551 14.5 52.0375C14.5 51.9277 13.8 51.8617 12.925 51.8617C11.5 51.8617 8.57498 51.3343 6.92498 50.785L6.32498 50.5872L7.19998 49.005C7.64998 48.1479 8.44998 46.4338 8.97498 45.2032L9.87498 42.9617L11.225 42.7859C14.2 42.4124 16.25 40.3906 16.25 37.7975C16.25 36.2812 15.5 35.6 13.9 35.6C12.975 35.6 12.625 35.7319 11.925 36.3032ZM14.75 36.3692C14.95 36.5889 15.025 37.0504 14.925 37.6877C14.55 39.9731 12.3 42.4124 10.525 42.4124C10.025 42.4124 10.05 42.3684 10.65 40.918C11.775 38.281 12.575 36.8966 13.2 36.4571C13.95 35.9516 14.325 35.9296 14.75 36.3692ZM4.09998 50.9827C4.47498 51.3343 3.39998 52.0815 2.52498 52.0815C1.72498 52.0815 0.599981 51.1585 0.874981 50.741C1.09998 50.4333 3.67498 50.6092 4.09998 50.9827Z" fill="white"/>
<path d="M65.9502 35.8418C64.4752 36.5889 61.4252 41.6872 59.9002 45.9065C58.8252 48.9171 58.0502 50.1257 56.7002 50.9828C54.4752 52.4112 52.6002 52.2793 52.1502 50.6971C51.6752 49.0709 53.4002 45.9284 55.3002 44.9615C56.8252 44.1924 57.0752 44.8516 56.1002 46.9613C55.9002 47.3788 56.8752 47.3129 57.3502 46.8954C57.8502 46.4558 57.8502 45.2912 57.3502 44.6539C56.5002 43.5771 53.6252 44.3242 52.1502 46.0163C51.8002 46.4558 51.1502 47.4228 50.7752 48.2139C49.8752 49.9499 48.4252 51.4223 47.6002 51.4223C46.7252 51.4223 46.6252 50.6092 47.2752 48.8512C48.2002 46.2581 47.4502 44.8077 45.3252 45.1593C44.5752 45.2692 43.9752 45.6647 42.5252 46.9613C41.5252 47.8842 40.7502 48.4336 40.8502 48.2139C41.2252 47.0712 41.4252 45.9504 41.2502 45.7087C41.1252 45.5329 40.8002 45.4889 40.4002 45.5768C39.9252 45.6867 39.7002 45.9284 39.5002 46.6536C38.9252 48.5435 38.7002 48.983 37.7502 49.9499C36.6752 51.0047 35.2752 51.7299 34.6502 51.5102C34.0002 51.2904 34.1752 49.84 35.0252 47.8623C35.7752 46.1482 35.8002 46.0603 35.3502 45.7746C35.1002 45.6208 34.8502 45.4889 34.7752 45.4889C34.7002 45.4889 34.0752 46.4119 33.4252 47.5546C31.9252 50.1037 30.9252 51.2025 30.1252 51.2025C29.8002 51.2025 29.4502 51.0707 29.3502 50.9388C28.9252 50.3455 29.2252 48.3677 29.9502 46.8074C30.5752 45.5329 30.6502 45.2252 30.3502 45.1154C29.7502 44.9176 29.2752 45.2252 28.8502 46.0823C27.4502 48.8951 26.9002 49.7082 25.8252 50.5433C23.6002 52.2573 22.5252 51.2684 23.9002 48.7413C24.5252 47.5766 24.5502 47.4228 24.2002 47.1151C23.8502 46.7855 23.6752 46.9173 22.3002 48.4995C20.4752 50.6092 19.1752 51.642 18.3752 51.642C17.8002 51.642 17.7502 51.5541 17.7502 50.5872C17.7502 49.3566 18.4252 48.0161 19.7752 46.4339C21.6502 44.2363 24.0002 43.9067 24.0002 45.8625C24.0002 46.6536 24.2502 46.7635 24.8502 46.2361C25.4252 45.7307 25.3502 45.3131 24.5252 44.5879C23.9752 44.1265 23.5502 43.9507 22.8752 43.9507C19.9752 43.9507 15.9502 47.8403 15.9502 50.6751C15.9502 51.9716 16.5002 52.521 17.8002 52.521C18.6252 52.521 18.9752 52.3452 20.1502 51.4003C21.2002 50.4993 21.5002 50.3455 21.5002 50.6751C21.5002 52.1914 23.9002 52.6309 25.6002 51.4442C26.1002 51.0926 26.7002 50.5872 26.9752 50.3015L27.4252 49.8181L27.7752 50.785C28.4502 52.6749 30.4002 52.6309 31.9252 50.6971L32.6252 49.7961L32.7002 50.6751C32.8002 51.7299 33.0502 51.9936 34.0252 52.1694C34.9252 52.3233 36.0502 51.9497 37.2252 51.0707C37.9002 50.5872 38.0502 50.5213 37.9252 50.8509C37.7002 51.3344 38.1252 51.8618 38.7252 51.8618C38.9502 51.8618 39.7752 50.9828 40.6252 49.862C42.8002 46.9833 44.4002 45.8845 45.4002 46.6097C45.7252 46.8514 45.7752 47.1371 45.6252 48.126C45.5252 48.7852 45.4502 49.8181 45.4252 50.4334C45.3752 51.4223 45.4252 51.5541 46.1002 51.8178C47.1752 52.2793 48.5002 51.8618 49.6002 50.7191L50.5002 49.7961V50.4554C50.5002 51.7958 51.6502 52.7408 53.2252 52.7408C54.8252 52.7188 56.3002 52.0815 57.7502 50.741L59.0002 49.5983V50.3894C59.0002 51.4223 59.4752 52.3013 60.0252 52.3013C60.3252 52.3013 60.7252 51.8398 61.2502 50.807C63.4752 46.6316 63.7502 46.28 64.9252 46.4119C65.8252 46.4998 65.9252 47.1151 65.3752 49.3126C64.7752 51.642 65.3752 52.3452 67.6502 51.9716C68.6502 51.8178 70.4252 50.3894 71.1252 49.2247C71.8252 48.0381 71.4002 48.0381 70.5252 49.2028C69.5502 50.5433 68.3252 51.4223 67.4252 51.4223C66.8252 51.4223 66.7502 51.3344 66.7502 50.6971C66.7502 50.2795 66.9752 49.3786 67.2752 48.6534C68.1502 46.4558 67.5252 45.0494 65.7002 45.0494C64.2752 45.0494 63.0002 46.1921 61.6002 48.6534L60.4752 50.6531L60.6252 49.3346C60.9502 46.5218 61.1752 46.0823 63.0002 44.4121C65.1252 42.5003 67.0252 39.3798 67.2002 37.4679C67.2752 36.6988 67.2002 36.1494 67.0002 35.9297C66.6502 35.5561 66.5252 35.5341 65.9502 35.8418ZM66.4002 38.1712C65.9252 39.9072 62.3002 45.0714 62.0502 44.3902C61.9002 44.0166 63.7002 40.6763 64.8752 39.1161C66.1002 37.5119 66.6752 37.1383 66.4002 38.1712Z" fill="white"/>
<path d="M80.675 36.0615C79.25 36.7208 78.25 38.0833 78.25 39.3578C78.25 40.1929 78.375 40.4786 78.8 40.7423C79.65 41.2697 79.75 41.1818 79.75 39.9292C79.775 37.6438 80.725 36.2593 82.3 36.2593C83.525 36.2593 83.75 36.6988 83.75 39.2919C83.75 41.3796 83.35 43.0277 81.75 47.6645C80.225 52.1255 80.45 53.4001 82.775 53.4001C84.075 53.4001 85.15 52.8287 86.7 51.2904L87.9 50.1038L87.8 51.4003C87.7 52.6089 87.725 52.7188 88.375 53.0924C90.3 54.1912 92.975 52.7408 96.05 48.8951C99.85 44.1924 101.875 38.1052 100.125 36.5889C99.4 35.9297 99.225 35.9077 98.5 36.4351L97.925 36.8526L98.475 37.5119C99.575 38.8084 99.35 41.0499 97.725 44.566C95.975 48.4336 92.2 52.7408 90.55 52.7408C90.125 52.7408 89.75 52.6089 89.675 52.4112C89.4 51.7959 90.025 49.4225 91.125 46.9393C92.3 44.3242 92.45 43.5551 91.95 43.1156C91.5 42.7201 90.75 42.786 90.75 43.2255C90.75 43.9507 89.1 47.1591 87.875 48.9171C86.225 51.2465 84.525 52.7408 83.5 52.7408C82.775 52.7408 82.75 52.7188 82.75 51.7299C82.75 51.1586 83.275 49.1368 84 47.0492C85.625 42.2805 85.8 41.5114 85.8 39.5336C85.825 37.7317 85.35 36.501 84.4 35.9297C83.675 35.4682 81.8 35.5341 80.675 36.0615Z" fill="white"/>
<path d="M105 40.1489C104.425 40.3467 103.75 40.918 103.75 41.2257C103.75 42.1047 105.7 41.9948 106.25 41.0938C106.725 40.3247 106.025 39.8193 105 40.1489Z" fill="white"/>
<path d="M76.1255 42.0827C74.5005 43.2474 71.0255 43.665 68.8755 42.9398C67.1255 42.3464 67.0505 42.3464 66.7505 42.8299C66.5005 43.2694 66.5755 43.3573 67.9255 43.9067C69.1755 44.4121 69.6755 44.5 71.6255 44.478C74.0505 44.4561 75.5255 44.0605 77.2005 42.9178C78.0005 42.3904 78.0255 42.3464 77.6005 41.9509C77.0755 41.4235 77.0505 41.4235 76.1255 42.0827Z" fill="white"/>
<path d="M110.075 43.1156C109.925 43.2694 109.75 43.7309 109.65 44.1484C109.425 45.2033 108.15 46.8954 106.85 47.8183C106.275 48.2358 105.675 48.8512 105.55 49.1808C105.25 49.9499 103.875 51.1366 103.1 51.2904C102 51.5321 101.5 51.0926 101.5 49.862C101.5 48.961 101.725 48.3677 102.775 46.5877C103.95 44.6539 104.125 43.9507 103.5 43.9507C103.375 43.9507 102.95 44.2144 102.525 44.522C101.125 45.5549 99.4502 49.4884 99.8502 50.8289C100.275 52.3452 102.175 52.543 104.225 51.3124L105.475 50.5433L105.775 51.0487C106.3 51.9497 107.075 52.521 107.95 52.6529C109.2 52.8726 110.625 52.4112 111.425 51.5321C111.8 51.1146 112.425 50.7191 112.8 50.6531C113.15 50.5652 113.6 50.3675 113.775 50.1917C114.2 49.7302 114.5 49.8181 114.5 50.4334C114.5 50.741 114.825 51.2904 115.2 51.664C116.625 53.0704 119.5 52.6968 121.8 50.807C123.025 49.8181 124.15 48.4117 123.925 48.2139C123.875 48.1479 123.45 48.5215 123 49.0489C122.55 49.5763 121.875 50.2136 121.525 50.4993C119.075 52.4112 116.225 52.2573 116.15 50.2356C116.125 49.4005 116.125 49.3786 117.575 48.961C120.275 48.1919 122.05 46.8734 122.35 45.401C122.7 43.8188 121.55 43.1815 119.55 43.8408C117.825 44.4341 116.15 45.9284 115.075 47.8842C114.425 49.005 113.85 49.7082 113.25 50.0598L112.375 50.5652L112.2 49.2687C112.1 48.5435 111.8 47.2909 111.525 46.4778C111.225 45.6647 111 44.522 111 43.9287C111 42.8299 110.625 42.5003 110.075 43.1156ZM121.25 44.8297C121.25 45.5109 120.625 46.4558 119.725 47.1151C118.875 47.7524 116.525 48.8731 116.35 48.7193C116.125 48.5215 117.65 46.28 118.65 45.3791C119.45 44.6319 119.925 44.3902 120.5 44.3902C121.1 44.3902 121.25 44.4781 121.25 44.8297ZM110.225 47.203C110.525 48.4776 110.6 50.1697 110.35 50.3894C109.95 50.741 107.5 49.0489 107.5 48.4336C107.5 48.0161 109.575 45.6867 109.775 45.8845C109.875 45.9724 110.075 46.5657 110.225 47.203ZM109.625 50.6751C110.35 50.8289 110.375 50.9168 109.825 51.4662C109.2 52.0815 107.9 51.9936 107.275 51.2904C106.775 50.741 106.575 49.4665 106.9 49.1588C107 49.0709 107.5 49.3566 108.025 49.7741C108.55 50.1917 109.275 50.5872 109.625 50.6751Z" fill="white"/>
<path d="M26.75 44.2363C26.75 44.3901 26.825 44.7417 26.925 45.0274L27.075 45.5328L27.4 45.0274C27.85 44.3242 27.825 44.2363 27.25 44.1044C26.95 44.0385 26.75 44.1044 26.75 44.2363Z" fill="white"/>
<path d="M80.3502 44.8516C79.5002 45.6867 77.1752 46.8734 75.3752 47.3788C73.7752 47.8183 72.9502 48.3457 73.8252 48.3457C75.6752 48.3457 80.3002 46.1921 80.7502 45.1373C81.1002 44.3682 80.9502 44.2803 80.3502 44.8516Z" fill="white"/>
<path d="M86.45 47.4667C85.65 48.6314 85 49.6862 85 49.7961C85.025 50.0158 85.875 48.8511 87.175 46.8514C88.6 44.6319 88.025 45.1153 86.45 47.4667Z" fill="white"/>
<path d="M41.45 52.7188C40.95 52.8067 40.35 53.0264 40.125 53.1803C39.875 53.378 39.3 53.422 38.35 53.3341C37.425 53.2462 36.7 53.3121 36.125 53.5319C35.025 53.9274 34.3 53.9274 32.925 53.5099C31.925 53.2242 31.7 53.2242 30.925 53.5099C30.425 53.6857 29.725 53.8395 29.4 53.8395C28.825 53.8395 28.425 54.4548 24.95 60.564L21.125 67.2884L18.875 68.0136C17.625 68.3872 15.55 69.2003 14.25 69.7936C12.95 70.3869 11.775 70.8924 11.675 70.9363C11.55 70.9803 11.525 70.6946 11.6 70.299C12.55 65.2447 12.875 63.7724 13.5 62.1462C14.3 60.0805 15.7 57.5314 17.1 55.5976L17.975 54.3889L16.8 54.0373C15.65 53.7077 15.6 53.7077 14.975 54.2131C14.2 54.8284 12.625 59.0697 11.6 63.179C11 65.6622 9.75 72.3867 9.75 73.2218C9.75 73.5294 10.175 73.3536 11.7 72.4966C13.675 71.3539 16.6 70.0353 18.95 69.2442C20.425 68.7388 20.475 68.8047 19.875 70.299C19.525 71.178 19.6 72.5185 20 72.5185C20.1 72.5185 20.6 72.3647 21.075 72.1889C22.475 71.6835 24.2 71.7714 25.725 72.4306C27.325 73.1339 28.375 74.3205 28.775 75.9247C29.05 76.9795 29.025 77.2652 28.55 78.4958C28.275 79.265 28.1 79.9682 28.175 80.0781C28.325 80.2758 30.475 80.144 31.45 79.8803C31.85 79.7704 32 79.8143 32 80.0341C32 80.6494 29.225 85.1763 27.75 86.9783L26.275 88.7803H27.2C28.95 88.7803 37.125 87.8793 40.3 87.3299C48.85 85.8795 55.225 83.5062 59.15 80.3637L60.75 79.0672V77.2872C60.75 75.2655 60.3 73.2218 59.35 70.6946C59 69.7497 58.75 68.9366 58.775 68.9146C58.825 68.8706 59.825 68.3652 61 67.7939C64.175 66.2116 69.35 63.3988 71.625 62.0143C75.25 59.8168 81.25 55.3998 81.25 54.9383C81.25 54.8504 81 54.6966 80.7 54.5647C80.2 54.3669 79.9 54.5208 78.25 55.8832C74.525 58.9158 68.525 62.5857 61.475 66.1457C54.625 69.5958 36.7 77.1114 35.05 77.1993C34.525 77.2432 33.45 76.3422 28.725 71.9911L23.025 66.739L26.575 60.564L30.125 54.3889L35.5 54.2571C40.05 54.1472 44.875 53.7736 45.225 53.4879C45.275 53.444 45.05 53.2242 44.725 52.9825C44.1 52.521 43.125 52.4551 41.45 52.7188ZM23.975 69.3761L25.225 70.6506L23.8 70.7166C23 70.7605 22.125 70.6946 21.825 70.6067L21.325 70.4309L21.825 69.2662C22.1 68.6509 22.4 68.1235 22.525 68.1235C22.625 68.1235 23.275 68.6948 23.975 69.3761ZM57.825 70.5847C58.55 72.2109 59.225 74.9139 59.4 76.6719L59.55 78.342L58.3 79.3748C56.25 81.0669 53.075 82.6931 49.575 83.8358C47.6 84.4951 47.65 84.4511 50.65 82.6492C51.925 81.902 53.925 80.4956 55.125 79.5067L57.325 77.7047L57.175 75.4852C57.075 74.2106 56.8 72.6504 56.5 71.7934C55.975 70.343 55.975 70.2771 56.425 69.9694C57.15 69.486 57.4 69.5958 57.825 70.5847ZM55.125 72.1669C55.55 73.4415 56 75.6171 56 76.4301C56 77.5289 51.225 81.1768 47.05 83.2425C44.65 84.4511 41.2 85.7037 38.875 86.2311C36.95 86.6926 29.25 87.5277 29.25 87.286C29.25 87.242 29.6 86.7585 30.025 86.2311C30.45 85.6818 31.4 84.0776 32.15 82.6711C32.9 81.2647 33.65 79.8583 33.825 79.5726C34.05 79.1551 35.3 78.5837 39.125 77.1334C44.4 75.1336 50.1 72.8262 52.625 71.6835C53.45 71.3099 54.25 71.0022 54.425 70.9803C54.6 70.9803 54.9 71.5077 55.125 72.1669Z" fill="white"/>
<path d="M88 55.5756C88 56.147 87.9 56.2349 87.2 56.3008C86.675 56.3448 86.375 56.4766 86.375 56.6964C86.375 56.9161 86.675 57.048 87.2 57.0919C87.925 57.1578 88 57.2238 88 57.927C88 58.5423 88.1 58.6961 88.45 58.6302C88.725 58.5862 88.9 58.3225 88.95 57.8391C89.025 57.2018 89.1 57.1359 89.9 57.1359C90.6 57.1359 90.775 57.048 90.7 56.7403C90.65 56.4986 90.35 56.3448 89.8 56.3008C89.1 56.2349 89 56.147 89 55.5756C89 55.0922 88.875 54.9383 88.5 54.9383C88.125 54.9383 88 55.0922 88 55.5756Z" fill="white"/>
<path d="M96.6 60.8716C96.425 61.0254 96.4 61.5089 96.525 62.2341C96.9 64.2338 96.2 65.7282 94.8 66.0358C93.1 66.4094 92 67.7719 92 69.5299C92 70.9583 92.65 70.9363 92.9 69.4859C93.15 67.8817 93.55 67.3983 95.2 66.739C97.15 65.9479 97.6 65.1568 97.45 62.7615C97.375 61.0694 97.075 60.4541 96.6 60.8716Z" fill="white"/>
<path d="M21.7501 73.1558C19.8001 73.7052 18.7001 74.6062 17.5251 76.6719C16.3751 78.6936 14.9501 83.1106 15.3501 83.4622C15.6501 83.704 20.3001 82.8469 22.2001 82.1877C26.0251 80.8691 27.7001 79.177 27.4501 76.8696C27.1751 74.4523 24.1501 72.4965 21.7501 73.1558ZM23.8251 75.0237C25.0251 75.4632 25.5751 76.3202 25.4251 77.5069C25.2751 78.6716 24.8751 79.0891 23.0501 79.9462C21.6251 80.6274 18.0251 81.6163 17.7751 81.4185C17.5251 81.1768 18.9251 77.8365 19.8001 76.6499C21.1251 74.8479 22.2001 74.4084 23.8251 75.0237Z" fill="white"/>
<path d="M62.675 83.6381C62.575 83.726 62.5 84.2314 62.5 84.7588V85.7037H61.25C59.525 85.7037 59.525 86.2531 61.225 86.4509L62.475 86.6047L62.55 87.6376C62.65 88.9121 63.05 88.9121 63.325 87.6156C63.525 86.6706 63.6 86.6267 64.55 86.5168C65.1 86.4509 65.6 86.341 65.675 86.2971C66 86.0114 65.375 85.7037 64.5 85.7037H63.525L63.45 84.6709C63.375 83.704 63.075 83.3084 62.675 83.6381Z" fill="white"/>
</g>
<defs>
<clipPath id="clip0_527_315">
<rect width="124" height="89" fill="white"/>
</clipPath>
</defs>
</svg>
