<svg width="19" height="18" viewBox="0 0 19 18" fill="none" xmlns="http://www.w3.org/2000/svg">
<path fill="currentColor" d="M7.5435 4.63379C7.0236 4.63379 6.5369 4.7334 6.08337 4.93262C5.61879 5.13184 5.21505 5.40023 4.87214 5.73779C4.52923 6.07536 4.26376 6.47656 4.07571 6.94141C3.8766 7.39518 3.77705 7.88216 3.77705 8.40234C3.77705 8.93359 3.8766 9.42611 4.07571 9.87988C4.26376 10.3337 4.52923 10.7321 4.87214 11.0752C5.21505 11.4183 5.61879 11.6895 6.08337 11.8887C6.5369 12.0879 7.0236 12.1875 7.5435 12.1875C8.06339 12.1875 8.55562 12.0879 9.02021 11.8887C9.47373 11.6895 9.87195 11.4183 10.2149 11.0752C10.5578 10.7321 10.8288 10.3337 11.0279 9.87988C11.227 9.42611 11.3265 8.93359 11.3265 8.40234C11.3265 7.88216 11.227 7.39518 11.0279 6.94141C10.8288 6.47656 10.5578 6.07536 10.2149 5.73779C9.87195 5.40023 9.47373 5.13184 9.02021 4.93262C8.55562 4.7334 8.06339 4.63379 7.5435 4.63379ZM1.88553 8.40234C1.88553 7.6276 2.03486 6.89714 2.33352 6.21094C2.63218 5.51367 3.03593 4.91048 3.54476 4.40137C4.05359 3.89225 4.65091 3.48828 5.33672 3.18945C6.0336 2.89062 6.76919 2.74121 7.5435 2.74121C8.32886 2.74121 9.06445 2.89062 9.75027 3.18945C10.4361 3.48828 11.0362 3.89225 11.5505 4.40137C12.0649 4.91048 12.4714 5.51367 12.7701 6.21094C13.0687 6.89714 13.2181 7.6276 13.2181 8.40234C13.2181 9.18815 13.0687 9.92415 12.7701 10.6104C12.4714 11.2965 12.0649 11.897 11.5505 12.4116C11.0362 12.9263 10.4361 13.333 9.75027 13.6318C9.06445 13.9307 8.32886 14.0801 7.5435 14.0801C6.76919 14.0801 6.0336 13.9307 5.33672 13.6318C4.65091 13.333 4.05359 12.9263 3.54476 12.4116C3.03593 11.897 2.63218 11.2965 2.33352 10.6104C2.03486 9.92415 1.88553 9.18815 1.88553 8.40234ZM14.4293 16.6367L12.5378 14.7441C12.3608 14.556 12.2723 14.3319 12.2723 14.0718C12.2723 13.8117 12.3608 13.5931 12.5378 13.416C12.7258 13.2279 12.9498 13.1338 13.2098 13.1338C13.4697 13.1338 13.6937 13.2279 13.8817 13.416L15.7733 15.292C15.9503 15.4801 16.0387 15.7043 16.0387 15.9644C16.0387 16.2244 15.9503 16.4486 15.7733 16.6367C15.5852 16.8138 15.3612 16.9023 15.1013 16.9023C14.8413 16.9023 14.6173 16.8138 14.4293 16.6367Z" />
</svg>
