<svg width="37" height="37" viewBox="0 0 37 37" fill="none" xmlns="http://www.w3.org/2000/svg">
<rect x="18.1863" width="25.7193" height="25.7193" rx="4.53869" transform="rotate(45 18.1863 0)" fill="#BBDEFB"/>
<rect x="18.1863" width="25.7193" height="25.7193" rx="4.53869" transform="rotate(45 18.1863 0)" fill="#BBDEFB"/>
<rect x="18.1863" width="25.7193" height="25.7193" rx="4.53869" transform="rotate(45 18.1863 0)" fill="#BBDEFB"/>
<rect x="18.1863" width="25.7193" height="25.7193" rx="4.53869" transform="rotate(45 18.1863 0)" fill="#BBDEFB"/>
<rect x="18.1863" width="25.7193" height="25.7193" rx="4.53869" transform="rotate(45 18.1863 0)" fill="#BBDEFB"/>
<rect x="18.1863" width="25.7193" height="25.7193" rx="4.53869" transform="rotate(45 18.1863 0)" fill="#BBDEFB"/>
<rect x="18.1863" width="25.7193" height="25.7193" rx="4.53869" transform="rotate(45 18.1863 0)" fill="#BBDEFB"/>
<rect x="18.1863" width="25.7193" height="25.7193" rx="4.53869" transform="rotate(45 18.1863 0)" fill="#BBDEFB"/>
<rect x="18.1863" width="25.7193" height="25.7193" rx="4.53869" transform="rotate(45 18.1863 0)" fill="#BBDEFB"/>
<rect x="18.1863" width="25.7193" height="25.7193" rx="4.53869" transform="rotate(45 18.1863 0)" fill="#BBDEFB"/>
<rect x="18.1863" width="25.7193" height="25.7193" rx="4.53869" transform="rotate(45 18.1863 0)" fill="#BBDEFB"/>
<rect x="18.1863" width="25.7193" height="25.7193" rx="4.53869" transform="rotate(45 18.1863 0)" fill="#BBDEFB"/>
<rect x="18.1863" width="25.7193" height="25.7193" rx="4.53869" transform="rotate(45 18.1863 0)" fill="#BBDEFB"/>
<path fill-rule="evenodd" clip-rule="evenodd" d="M14.3559 16.3528L13.0852 17.6235L17.17 21.7083L26.2474 12.6309L24.9766 11.3602L17.17 19.1212L14.3559 16.3528ZM25.3393 18.0774C25.3393 22.0714 22.0713 25.3393 18.0774 25.3393C14.0835 25.3393 10.8155 22.0714 10.8155 18.0774C10.8155 14.0834 14.0834 10.8155 18.0774 10.8155C18.7582 10.8155 19.439 10.9063 20.0746 11.0878L21.4814 9.6808C20.4376 9.22693 19.3029 9 18.0774 9C13.0848 9 9 13.0848 9 18.0774C9 23.07 13.0848 27.1548 18.0774 27.1548C23.07 27.1548 27.1548 23.07 27.1548 18.0774H25.3393Z" fill="#2196F3"/>
</svg>
