<svg width="37" height="37" viewBox="0 0 37 37" fill="none" xmlns="http://www.w3.org/2000/svg">
<rect x="18.5986" y="0.345215" width="25.7193" height="25.7193" rx="4.53869" transform="rotate(45 18.5986 0.345215)" fill="#FBEABB"/>
<path fill-rule="evenodd" clip-rule="evenodd" d="M18.0776 15.5979C19.1109 15.5979 20.0863 16.0041 20.824 16.7418C21.5617 17.4795 21.9679 18.4549 21.9679 19.4882C21.9679 20.2023 21.7887 20.8673 21.4353 21.4647C21.0973 22.036 20.6071 22.5197 20.0175 22.8638L19.3744 23.2391V23.9838V26.858H16.7808V23.9838V23.2391L16.1377 22.8638C14.9346 22.1618 14.1873 20.8683 14.1873 19.4882C14.1873 18.4549 14.5935 17.4795 15.3312 16.7418C16.0689 16.0041 17.0443 15.5979 18.0776 15.5979ZM18.9418 10C18.6826 10 17.2128 10 17.2128 10V12.5935H18.9418V10ZM24.172 12.1828L22.6161 13.7392L23.8263 14.9494L25.3827 13.3935L24.172 12.1828ZM11.9828 12.1828L10.7722 13.3934L12.3286 14.9494L13.5388 13.7392L11.9828 12.1828ZM18.0776 14.301C15.2249 14.301 12.8905 16.6354 12.8905 19.4881C12.8905 21.3902 13.9281 23.0757 15.484 23.9838V28.1547H20.6711V23.9837C22.2271 23.0757 23.2647 21.4332 23.2647 19.4881C23.2647 16.6353 20.9303 14.301 18.0776 14.301ZM27.1549 18.6237H24.5614V20.3527H27.1549V18.6237ZM11.5935 18.6237H9V20.3527H11.5935V18.6237Z" fill="#F38D21"/>
</svg>
