<svg width="37" height="37" viewBox="0 0 37 37" fill="none" xmlns="http://www.w3.org/2000/svg">
<rect x="18.1863" width="25.7193" height="25.7193" rx="4.53869" transform="rotate(45 18.1863 0)" fill="#EDE7F6"/>
<path fill-rule="evenodd" clip-rule="evenodd" d="M21.6157 16.4694L18.2031 19.0652C18.1546 19.0612 18.1061 19.0571 18.0575 19.0571C17.3419 19.0571 16.7637 19.6353 16.7637 20.351C16.7637 21.0667 17.3419 21.6449 18.0575 21.6449C18.7732 21.6449 19.3514 21.0667 19.3514 20.351C19.3514 20.3025 19.3474 20.254 19.3433 20.2054L21.9392 16.7928L21.6157 16.4694Z" fill="#651FFF"/>
<path fill-rule="evenodd" clip-rule="evenodd" d="M18.0572 10C13.0555 10 8.99999 14.0555 8.99999 19.0572C8.99999 20.4481 9.31538 21.7622 9.87336 22.9388H11.333C10.7103 21.8633 10.3545 20.6503 10.302 19.3806H11.5878V18.7337H10.302C10.3505 17.5692 10.6537 16.4492 11.1834 15.4424L12.2953 16.0853L12.6188 15.5233L11.5069 14.8844C11.8061 14.4154 12.1619 13.9706 12.5663 13.5663C12.9787 13.1579 13.4275 12.798 13.9046 12.4948L14.5435 13.5986L15.1055 13.2751L14.4666 12.1713C15.4694 11.6457 16.5773 11.3505 17.7337 11.302V12.5878H18.3806V11.302C19.537 11.3505 20.6449 11.6497 21.6477 12.1713L21.0129 13.2751L21.5749 13.5986L22.2138 12.4948C22.6909 12.798 23.1397 13.1579 23.5521 13.5663C23.9565 13.9706 24.3082 14.4113 24.6115 14.8844L23.5036 15.5233L23.8271 16.0853L24.939 15.4424C25.4687 16.4492 25.7719 17.5692 25.8205 18.7337H24.5266V19.3806H25.8124C25.7598 20.6503 25.404 21.8633 24.7813 22.9388H26.241C26.799 21.7622 27.1143 20.4481 27.1143 19.0572C27.1143 14.0555 23.0588 10 18.0572 10Z" fill="#651FFF"/>
</svg>
