<svg width="37" height="37" viewBox="0 0 37 37" fill="none" xmlns="http://www.w3.org/2000/svg">
<rect x="18.1863" width="25.7193" height="25.7193" rx="4.53869" transform="rotate(45 18.1863 0)" fill="#BBDEFB"/>
<path fill-rule="evenodd" clip-rule="evenodd" d="M18.0769 14.8354C16.2937 14.8354 14.835 16.2943 14.835 18.0774C14.835 19.8606 16.2937 21.3193 18.0769 21.3193C19.8602 21.3193 21.3188 19.8606 21.3188 18.0774C21.3188 16.2943 19.8602 14.8354 18.0769 14.8354ZM25.815 17.2129C25.4257 13.6253 22.5295 10.729 18.9419 10.34V9H17.2129V10.34C13.6252 10.729 10.729 13.6252 10.3398 17.2128H8.99999V18.9419H10.3398C10.729 22.5295 13.6252 25.4257 17.2128 25.8149V27.1548H18.9418V25.815C22.5295 25.4258 25.4257 22.5296 25.8149 18.9419H27.1548V17.2129H25.815ZM18.078 24.1289C14.7495 24.1289 12.0264 21.4058 12.0264 18.0773C12.0264 14.7489 14.7495 12.0258 18.078 12.0258C21.4064 12.0258 24.1295 14.7489 24.1295 18.0773C24.1295 21.4058 21.4064 24.1289 18.078 24.1289Z" fill="#00BCD4"/>
</svg>
