<svg width="18" height="18" viewBox="0 0 18 18" fill="none" xmlns="http://www.w3.org/2000/svg">
<g clip-path="url(#clip0_757_722)">
<rect width="18" height="18" transform="matrix(1 0 0 -1 0 18)" fill="white"/>
<path d="M17.0156 13.8867L14.959 11.9004C14.748 11.6777 14.4902 11.5664 14.1855 11.5664C13.8808 11.5664 13.6172 11.6777 13.3945 11.9004L11.8476 13.4473C11.6719 13.623 11.458 13.7109 11.206 13.7109C10.9541 13.7109 10.7402 13.623 10.5644 13.4473L4.86913 7.54102C4.70506 7.37695 4.6201 7.17773 4.61424 6.94336C4.60838 6.70899 4.68749 6.50391 4.85155 6.32812L6.2578 4.74609C6.46874 4.53516 6.5742 4.27734 6.5742 3.97266C6.5742 3.66797 6.46874 3.41016 6.2578 3.19922L4.28905 1.125C4.07811 0.914062 3.8203 0.808594 3.51561 0.808594C3.21092 0.808594 2.94725 0.914062 2.72459 1.125L1.00194 2.84766C0.744126 3.10547 0.547837 3.40137 0.413071 3.73535C0.278306 4.06934 0.228501 4.41211 0.263657 4.76367C0.416001 6.28711 0.873032 7.81055 1.63475 9.33398C2.39647 10.8574 3.37792 12.2373 4.57909 13.4736C5.78026 14.71 7.166 15.7324 8.73631 16.541C10.3066 17.3496 11.9765 17.8125 13.7461 17.9297C13.9922 17.9414 14.2236 17.9004 14.4404 17.8066C14.6572 17.7129 14.8535 17.584 15.0293 17.4199L17.0156 15.4336C17.2265 15.2227 17.332 14.9648 17.332 14.6602C17.332 14.3555 17.2265 14.0977 17.0156 13.8867Z" fill="#393939"/>
</g>
<defs>
<clipPath id="clip0_757_722">
<rect width="18" height="18" fill="white" transform="matrix(1 0 0 -1 0 18)"/>
</clipPath>
</defs>
</svg>
