<svg width="17" height="18" viewBox="0 0 17 18" fill="none" xmlns="http://www.w3.org/2000/svg">
<g clip-path="url(#clip0_757_724)">
<path d="M15.7565 16.2773C15.733 15.6914 15.5455 15.1729 15.194 14.7217C14.8424 14.2705 14.3854 13.9629 13.8229 13.7988L11.6432 13.166C11.069 12.9902 10.483 12.8613 9.88538 12.7793C9.29944 12.6973 8.70764 12.6562 8.10999 12.6562C7.51233 12.6562 6.91467 12.6973 6.31702 12.7793C5.73108 12.8613 5.151 12.9902 4.57678 13.166L2.37952 13.7988C1.82874 13.9629 1.37463 14.2705 1.01721 14.7217C0.65979 15.1729 0.46936 15.6855 0.445923 16.2598C0.434204 16.6113 0.425415 16.957 0.419556 17.2969C0.413696 17.6367 0.410767 17.9297 0.410767 18.1758H15.8092C15.8092 17.9531 15.8033 17.6689 15.7916 17.3232C15.7799 16.9775 15.7682 16.6289 15.7565 16.2773ZM8.10999 9.93164C8.66077 9.93164 9.19983 9.80273 9.72717 9.54492C10.2545 9.28711 10.7233 8.93262 11.1334 8.48145C11.5436 8.03027 11.8776 7.50586 12.1354 6.9082C12.3815 6.31055 12.5045 5.66602 12.5045 4.97461C12.5045 4.2832 12.3815 3.66797 12.1354 3.12891C11.8776 2.57812 11.5436 2.11523 11.1334 1.74023C10.7233 1.36523 10.2545 1.07812 9.72717 0.878906C9.19983 0.679688 8.66077 0.580078 8.10999 0.580078C7.5592 0.580078 7.02014 0.679688 6.4928 0.878906C5.96545 1.07812 5.4967 1.36523 5.08655 1.74023C4.67639 2.11523 4.34241 2.57812 4.08459 3.12891C3.82678 3.66797 3.69788 4.2832 3.69788 4.97461C3.69788 5.66602 3.82678 6.31055 4.08459 6.9082C4.34241 7.50586 4.67639 8.03027 5.08655 8.48145C5.4967 8.93262 5.96545 9.28711 6.4928 9.54492C7.02014 9.80273 7.5592 9.93164 8.10999 9.93164Z" fill="#393939"/>
</g>
<defs>
<clipPath id="clip0_757_724">
<rect width="16.22" height="18" fill="white" transform="matrix(1 0 0 -1 0 18)"/>
</clipPath>
</defs>
</svg>
